  0
SECTION
  2
HEADER
  9
$ACADVER
  1
AC1015
  9
$ACADMAINTVER
 70
6
  9
$DWGCODEPAGE
  3
ANSI_1252
  9
$INSBASE
 10
0.0
 20
0.0
 30
0.0
  9
$EXTMIN
 10
1e+20
 20
1e+20
 30
1e+20
  9
$EXTMAX
 10
-1e+20
 20
-1e+20
 30
-1e+20
  9
$LIMMIN
 10
0.0
 20
0.0
  9
$LIMMAX
 10
420.0
 20
297.0
  9
$ORTHOMODE
 70
0
  9
$REGENMODE
 70
1
  9
$FILLMODE
 70
1
  9
$QTEXTMODE
 70
0
  9
$MIRRTEXT
 70
1
  9
$LTSCALE
 40
1.0
  9
$ATTMODE
 70
1
  9
$TEXTSIZE
 40
2.5
  9
$TRACEWID
 40
1.0
  9
$TEXTSTYLE
  7
Standard
  9
$CLAYER
  8
0
  9
$CELTYPE
  6
ByLayer
  9
$CECOLOR
 62
256
  9
$CELTSCALE
 40
1.0
  9
$DISPSILH
 70
0
  9
$DIMSCALE
 40
1.0
  9
$DIMASZ
 40
2.5
  9
$DIMEXO
 40
0.625
  9
$DIMDLI
 40
3.75
  9
$DIMRND
 40
0.0
  9
$DIMDLE
 40
0.0
  9
$DIMEXE
 40
1.25
  9
$DIMTP
 40
0.0
  9
$DIMTM
 40
0.0
  9
$DIMTXT
 40
2.5
  9
$DIMCEN
 40
2.5
  9
$DIMTSZ
 40
0.0
  9
$DIMTOL
 70
0
  9
$DIMLIM
 70
0
  9
$DIMTIH
 70
0
  9
$DIMTOH
 70
0
  9
$DIMSE1
 70
0
  9
$DIMSE2
 70
0
  9
$DIMTAD
 70
1
  9
$DIMZIN
 70
8
  9
$DIMBLK
  1

  9
$DIMASO
 70
1
  9
$DIMSHO
 70
1
  9
$DIMPOST
  1

  9
$DIMAPOST
  1

  9
$DIMALT
 70
0
  9
$DIMALTD
 70
3
  9
$DIMALTF
 40
0.03937007874
  9
$DIMLFAC
 40
1.0
  9
$DIMTOFL
 70
1
  9
$DIMTVP
 40
0.0
  9
$DIMTIX
 70
0
  9
$DIMSOXD
 70
0
  9
$DIMSAH
 70
0
  9
$DIMBLK1
  1

  9
$DIMBLK2
  1

  9
$DIMSTYLE
  2
ISO-25
  9
$DIMCLRD
 70
0
  9
$DIMCLRE
 70
0
  9
$DIMCLRT
 70
0
  9
$DIMTFAC
 40
1.0
  9
$DIMGAP
 40
0.625
  9
$DIMJUST
 70
0
  9
$DIMSD1
 70
0
  9
$DIMSD2
 70
0
  9
$DIMTOLJ
 70
0
  9
$DIMTZIN
 70
8
  9
$DIMALTZ
 70
0
  9
$DIMALTTZ
 70
0
  9
$DIMUPT
 70
0
  9
$DIMDEC
 70
2
  9
$DIMTDEC
 70
2
  9
$DIMALTU
 70
2
  9
$DIMALTTD
 70
3
  9
$DIMTXSTY
  7
Standard
  9
$DIMAUNIT
 70
0
  9
$DIMADEC
 70
0
  9
$DIMALTRND
 40
0.0
  9
$DIMAZIN
 70
0
  9
$DIMDSEP
 70
44
  9
$DIMATFIT
 70
3
  9
$DIMFRAC
 70
0
  9
$DIMLDRBLK
  1

  9
$DIMLUNIT
 70
2
  9
$DIMLWD
 70
-2
  9
$DIMLWE
 70
-2
  9
$DIMTMOVE
 70
0
  9
$LUNITS
 70
2
  9
$LUPREC
 70
4
  9
$SKETCHINC
 40
1.0
  9
$FILLETRAD
 40
10.0
  9
$AUNITS
 70
0
  9
$AUPREC
 70
2
  9
$MENU
  1
.
  9
$ELEVATION
 40
0.0
  9
$PELEVATION
 40
0.0
  9
$THICKNESS
 40
0.0
  9
$LIMCHECK
 70
0
  9
$CHAMFERA
 40
0.0
  9
$CHAMFERB
 40
0.0
  9
$CHAMFERC
 40
0.0
  9
$CHAMFERD
 40
0.0
  9
$SKPOLY
 70
0
  9
$TDCREATE
 40
2461177.4966319446
  9
$TDUCREATE
 40
2458532.153996898
  9
$TDUPDATE
 40
2461177.4966319446
  9
$TDUUPDATE
 40
2458532.1544311
  9
$TDINDWG
 40
0.0
  9
$TDUSRTIMER
 40
0.0
  9
$USRTIMER
 70
1
  9
$ANGBASE
 50
0.0
  9
$ANGDIR
 70
0
  9
$PDMODE
 70
0
  9
$PDSIZE
 40
0.0
  9
$PLINEWID
 40
0.0
  9
$SPLFRAME
 70
0
  9
$SPLINETYPE
 70
6
  9
$SPLINESEGS
 70
8
  9
$HANDSEED
  5
10B
  9
$SURFTAB1
 70
6
  9
$SURFTAB2
 70
6
  9
$SURFTYPE
 70
6
  9
$SURFU
 70
6
  9
$SURFV
 70
6
  9
$UCSBASE
  2

  9
$UCSNAME
  2

  9
$UCSORG
 10
0.0
 20
0.0
 30
0.0
  9
$UCSXDIR
 10
1.0
 20
0.0
 30
0.0
  9
$UCSYDIR
 10
0.0
 20
1.0
 30
0.0
  9
$UCSORTHOREF
  2

  9
$UCSORTHOVIEW
 70
0
  9
$UCSORGTOP
 10
0.0
 20
0.0
 30
0.0
  9
$UCSORGBOTTOM
 10
0.0
 20
0.0
 30
0.0
  9
$UCSORGLEFT
 10
0.0
 20
0.0
 30
0.0
  9
$UCSORGRIGHT
 10
0.0
 20
0.0
 30
0.0
  9
$UCSORGFRONT
 10
0.0
 20
0.0
 30
0.0
  9
$UCSORGBACK
 10
0.0
 20
0.0
 30
0.0
  9
$PUCSBASE
  2

  9
$PUCSNAME
  2

  9
$PUCSORG
 10
0.0
 20
0.0
 30
0.0
  9
$PUCSXDIR
 10
1.0
 20
0.0
 30
0.0
  9
$PUCSYDIR
 10
0.0
 20
1.0
 30
0.0
  9
$PUCSORTHOREF
  2

  9
$PUCSORTHOVIEW
 70
0
  9
$PUCSORGTOP
 10
0.0
 20
0.0
 30
0.0
  9
$PUCSORGBOTTOM
 10
0.0
 20
0.0
 30
0.0
  9
$PUCSORGLEFT
 10
0.0
 20
0.0
 30
0.0
  9
$PUCSORGRIGHT
 10
0.0
 20
0.0
 30
0.0
  9
$PUCSORGFRONT
 10
0.0
 20
0.0
 30
0.0
  9
$PUCSORGBACK
 10
0.0
 20
0.0
 30
0.0
  9
$USERI1
 70
0
  9
$USERI2
 70
0
  9
$USERI3
 70
0
  9
$USERI4
 70
0
  9
$USERI5
 70
0
  9
$USERR1
 40
0.0
  9
$USERR2
 40
0.0
  9
$USERR3
 40
0.0
  9
$USERR4
 40
0.0
  9
$USERR5
 40
0.0
  9
$WORLDVIEW
 70
1
  9
$SHADEDGE
 70
3
  9
$SHADEDIF
 70
70
  9
$TILEMODE
 70
1
  9
$MAXACTVP
 70
64
  9
$PINSBASE
 10
0.0
 20
0.0
 30
0.0
  9
$PLIMCHECK
 70
0
  9
$PEXTMIN
 10
1e+20
 20
1e+20
 30
1e+20
  9
$PEXTMAX
 10
-1e+20
 20
-1e+20
 30
-1e+20
  9
$PLIMMIN
 10
0.0
 20
0.0
  9
$PLIMMAX
 10
420.0
 20
297.0
  9
$UNITMODE
 70
0
  9
$VISRETAIN
 70
1
  9
$PLINEGEN
 70
0
  9
$PSLTSCALE
 70
1
  9
$TREEDEPTH
 70
3020
  9
$CMLSTYLE
  2
Standard
  9
$CMLJUST
 70
0
  9
$CMLSCALE
 40
20.0
  9
$PROXYGRAPHICS
 70
1
  9
$MEASUREMENT
 70
1
  9
$CELWEIGHT
370
-1
  9
$ENDCAPS
280
0
  9
$JOINSTYLE
280
0
  9
$LWDISPLAY
290
0
  9
$INSUNITS
 70
6
  9
$HYPERLINKBASE
  1

  9
$STYLESHEET
  1

  9
$XEDIT
290
1
  9
$CEPSNTYPE
380
0
  9
$PSTYLEMODE
290
1
  9
$FINGERPRINTGUID
  2
{A24CBEDE-9175-4DE3-9D8A-B83A949C97E6}
  9
$VERSIONGUID
  2
{715BD19C-30DD-4780-9F26-8A8DC43627D6}
  9
$EXTNAMES
290
1
  9
$PSVPSCALE
 40
0.0
  9
$OLESTARTUP
290
0
  0
ENDSEC
  0
SECTION
  2
CLASSES
  0
CLASS
  1
ACDBDICTIONARYWDFLT
  2
AcDbDictionaryWithDefault
  3
ObjectDBX Classes
 90
0
280
0
281
0
  0
CLASS
  1
SUN
  2
AcDbSun
  3
SCENEOE
 90
1153
280
0
281
0
  0
CLASS
  1
VISUALSTYLE
  2
AcDbVisualStyle
  3
ObjectDBX Classes
 90
4095
280
0
281
0
  0
CLASS
  1
MATERIAL
  2
AcDbMaterial
  3
ObjectDBX Classes
 90
1153
280
0
281
0
  0
CLASS
  1
SCALE
  2
AcDbScale
  3
ObjectDBX Classes
 90
1153
280
0
281
0
  0
CLASS
  1
TABLESTYLE
  2
AcDbTableStyle
  3
ObjectDBX Classes
 90
4095
280
0
281
0
  0
CLASS
  1
MLEADERSTYLE
  2
AcDbMLeaderStyle
  3
ACDB_MLEADERSTYLE_CLASS
 90
4095
280
0
281
0
  0
CLASS
  1
DICTIONARYVAR
  2
AcDbDictionaryVar
  3
ObjectDBX Classes
 90
0
280
0
281
0
  0
CLASS
  1
CELLSTYLEMAP
  2
AcDbCellStyleMap
  3
ObjectDBX Classes
 90
1152
280
0
281
0
  0
CLASS
  1
MENTALRAYRENDERSETTINGS
  2
AcDbMentalRayRenderSettings
  3
SCENEOE
 90
1024
280
0
281
0
  0
CLASS
  1
ACDBDETAILVIEWSTYLE
  2
AcDbDetailViewStyle
  3
ObjectDBX Classes
 90
1025
280
0
281
0
  0
CLASS
  1
ACDBSECTIONVIEWSTYLE
  2
AcDbSectionViewStyle
  3
ObjectDBX Classes
 90
1025
280
0
281
0
  0
CLASS
  1
RASTERVARIABLES
  2
AcDbRasterVariables
  3
ISM
 90
0
280
0
281
0
  0
CLASS
  1
ACDBPLACEHOLDER
  2
AcDbPlaceHolder
  3
ObjectDBX Classes
 90
0
280
0
281
0
  0
CLASS
  1
LAYOUT
  2
AcDbLayout
  3
ObjectDBX Classes
 90
0
280
0
281
0
  0
ENDSEC
  0
SECTION
  2
TABLES
  0
TABLE
  2
VPORT
  5
8
330
0
100
AcDbSymbolTable
 70
1
  0
VPORT
  5
23
330
8
100
AcDbSymbolTableRecord
100
AcDbViewportTableRecord
  2
*Active
 70
0
 10
0.0
 20
0.0
 11
1.0
 21
1.0
 12
0.0
 22
0.0
 13
0.0
 23
0.0
 14
0.5
 24
0.5
 15
0.5
 25
0.5
 16
0.0
 26
0.0
 36
1.0
 17
0.0
 27
0.0
 37
0.0
 40
1000.0
 41
1.34
 42
50.0
 43
0.0
 44
0.0
 50
0.0
 51
0.0
 71
0
 72
1000
 73
1
 74
3
 75
0
 76
0
 77
0
 78
0
281
0
 65
0
146
0.0
  0
ENDTAB
  0
TABLE
  2
LTYPE
  5
2
330
0
100
AcDbSymbolTable
 70
3
  0
LTYPE
  5
24
330
2
100
AcDbSymbolTableRecord
100
AcDbLinetypeTableRecord
  2
ByBlock
 70
0
  3

 72
65
 73
0
 40
0.0
  0
LTYPE
  5
25
330
2
100
AcDbSymbolTableRecord
100
AcDbLinetypeTableRecord
  2
ByLayer
 70
0
  3

 72
65
 73
0
 40
0.0
  0
LTYPE
  5
26
330
2
100
AcDbSymbolTableRecord
100
AcDbLinetypeTableRecord
  2
Continuous
 70
0
  3

 72
65
 73
0
 40
0.0
  0
ENDTAB
  0
TABLE
  2
LAYER
  5
1
330
0
100
AcDbSymbolTable
 70
15
  0
LAYER
  5
27
330
1
100
AcDbSymbolTableRecord
100
AcDbLayerTableRecord
  2
0
 70
0
 62
7
  6
Continuous
370
-3
390
13
  0
LAYER
  5
28
330
1
100
AcDbSymbolTableRecord
100
AcDbLayerTableRecord
  2
Defpoints
 70
0
 62
7
  6
Continuous
290
0
370
-3
390
13
  0
LAYER
  5
2F
330
1
100
AcDbSymbolTableRecord
100
AcDbLayerTableRecord
  2
BORDER
 70
0
 62
7
  6
Continuous
370
-3
390
13
  0
LAYER
  5
30
330
1
100
AcDbSymbolTableRecord
100
AcDbLayerTableRecord
  2
STRUCTURE
 70
0
 62
7
  6
Continuous
370
-3
390
13
  0
LAYER
  5
31
330
1
100
AcDbSymbolTableRecord
100
AcDbLayerTableRecord
  2
WATER_PIPE
 70
0
 62
7
  6
Continuous
370
-3
390
13
  0
LAYER
  5
32
330
1
100
AcDbSymbolTableRecord
100
AcDbLayerTableRecord
  2
SLUDGE_PIPE
 70
0
 62
7
  6
Continuous
370
-3
390
13
  0
LAYER
  5
33
330
1
100
AcDbSymbolTableRecord
100
AcDbLayerTableRecord
  2
AIR_PIPE
 70
0
 62
7
  6
Continuous
370
-3
390
13
  0
LAYER
  5
34
330
1
100
AcDbSymbolTableRecord
100
AcDbLayerTableRecord
  2
RETURN_PIPE
 70
0
 62
7
  6
Continuous
370
-3
390
13
  0
LAYER
  5
35
330
1
100
AcDbSymbolTableRecord
100
AcDbLayerTableRecord
  2
WATER_LINE
 70
0
 62
7
  6
Continuous
370
-3
390
13
  0
LAYER
  5
36
330
1
100
AcDbSymbolTableRecord
100
AcDbLayerTableRecord
  2
TEXT
 70
0
 62
7
  6
Continuous
370
-3
390
13
  0
LAYER
  5
37
330
1
100
AcDbSymbolTableRecord
100
AcDbLayerTableRecord
  2
DIMENSION
 70
0
 62
7
  6
Continuous
370
-3
390
13
  0
LAYER
  5
38
330
1
100
AcDbSymbolTableRecord
100
AcDbLayerTableRecord
  2
EQUIPMENT
 70
0
 62
7
  6
Continuous
370
-3
390
13
  0
LAYER
  5
39
330
1
100
AcDbSymbolTableRecord
100
AcDbLayerTableRecord
  2
ARROW
 70
0
 62
7
  6
Continuous
370
-3
390
13
  0
LAYER
  5
3A
330
1
100
AcDbSymbolTableRecord
100
AcDbLayerTableRecord
  2
TITLE_BLOCK
 70
0
 62
7
  6
Continuous
370
-3
390
13
  0
LAYER
  5
3B
330
1
100
AcDbSymbolTableRecord
100
AcDbLayerTableRecord
  2
TITLE_TEXT
 70
0
 62
7
  6
Continuous
370
-3
390
13
  0
ENDTAB
  0
TABLE
  2
STYLE
  5
5
330
0
100
AcDbSymbolTable
 70
2
  0
STYLE
  5
29
330
5
100
AcDbSymbolTableRecord
100
AcDbTextStyleTableRecord
  2
Standard
 70
0
 40
0.0
 41
1.0
 50
0.0
 71
0
 42
2.5
  3
txt
  4

  0
STYLE
  5
3C
330
5
100
AcDbSymbolTableRecord
100
AcDbTextStyleTableRecord
  2
StandardChinese
 70
0
 40
0.0
 41
1.0
 50
0.0
 71
0
 42
2.5
  3
SimSun.ttf
  4

  0
ENDTAB
  0
TABLE
  2
VIEW
  5
7
330
0
100
AcDbSymbolTable
 70
0
  0
ENDTAB
  0
TABLE
  2
UCS
  5
6
330
0
100
AcDbSymbolTable
 70
0
  0
ENDTAB
  0
TABLE
  2
APPID
  5
3
330
0
100
AcDbSymbolTable
 70
3
  0
APPID
  5
2A
330
3
100
AcDbSymbolTableRecord
100
AcDbRegAppTableRecord
  2
ACAD
 70
0
  0
APPID
  5
108
330
3
100
AcDbSymbolTableRecord
100
AcDbRegAppTableRecord
  2
HATCHBACKGROUNDCOLOR
 70
0
  0
APPID
  5
109
330
3
100
AcDbSymbolTableRecord
100
AcDbRegAppTableRecord
  2
EZDXF
 70
0
  0
ENDTAB
  0
TABLE
  2
DIMSTYLE
  5
4
330
0
100
AcDbSymbolTable
 70
1
100
AcDbDimStyleTable
  0
DIMSTYLE
105
2B
330
4
100
AcDbSymbolTableRecord
100
AcDbDimStyleTableRecord
  2
Standard
 70
0
  3

  4

 40
1.0
 41
2.5
 42
0.625
 43
3.75
 44
1.25
 45
0.0
 46
0.0
 47
0.0
 48
0.0
140
2.5
141
2.5
142
0.0
143
0.03937007874
144
1.0
145
0.0
146
1.0
147
0.625
148
0.0
 71
0
 72
0
 73
0
 74
0
 75
0
 76
0
 77
1
 78
8
 79
3
170
0
171
3
172
1
173
0
174
0
175
0
176
0
177
0
178
0
179
2
271
2
272
2
273
2
274
3
275
0
276
0
277
2
278
44
279
0
280
0
281
0
282
0
283
0
284
8
285
0
286
0
288
0
289
3
371
-2
372
-2
  0
ENDTAB
  0
TABLE
  2
BLOCK_RECORD
  5
9
330
0
100
AcDbSymbolTable
 70
2
  0
BLOCK_RECORD
  5
17
330
9
100
AcDbSymbolTableRecord
100
AcDbBlockTableRecord
  2
*Model_Space
340
1A
  0
BLOCK_RECORD
  5
1B
330
9
100
AcDbSymbolTableRecord
100
AcDbBlockTableRecord
  2
*Paper_Space
340
1E
  0
ENDTAB
  0
ENDSEC
  0
SECTION
  2
BLOCKS
  0
BLOCK
  5
18
330
17
100
AcDbEntity
  8
0
100
AcDbBlockBegin
  2
*Model_Space
 70
0
 10
0.0
 20
0.0
 30
0.0
  3
*Model_Space
  1

  0
ENDBLK
  5
19
330
17
100
AcDbEntity
  8
0
100
AcDbBlockEnd
  0
BLOCK
  5
1C
330
1B
100
AcDbEntity
  8
0
100
AcDbBlockBegin
  2
*Paper_Space
 70
0
 10
0.0
 20
0.0
 30
0.0
  3
*Paper_Space
  1

  0
ENDBLK
  5
1D
330
1B
100
AcDbEntity
  8
0
100
AcDbBlockEnd
  0
ENDSEC
  0
SECTION
  2
ENTITIES
  0
LWPOLYLINE
  5
3D
330
17
100
AcDbEntity
  8
BORDER
100
AcDbPolyline
 90
5
 70
0
 10
10.0
 20
10.0
 10
584.0
 20
10.0
 10
584.0
 20
410.0
 10
10.0
 20
410.0
 10
10.0
 20
10.0
  0
LWPOLYLINE
  5
3E
330
17
100
AcDbEntity
  8
BORDER
100
AcDbPolyline
 90
5
 70
0
 10
35.0
 20
15.0
 10
579.0
 20
15.0
 10
579.0
 20
405.0
 10
35.0
 20
405.0
 10
35.0
 20
15.0
  0
LWPOLYLINE
  5
3F
330
17
100
AcDbEntity
  8
BORDER
100
AcDbPolyline
 90
5
 70
0
 10
399.0
 20
15.0
 10
579.0
 20
15.0
 10
579.0
 20
55.0
 10
399.0
 20
55.0
 10
399.0
 20
15.0
  0
TEXT
  5
40
330
17
100
AcDbEntity
  8
TEXT
100
AcDbText
 10
808.0
 20
37.0
 30
0.0
 40
2.5
  1
\U+8bbe\U+8ba1\U+5355\U+4f4d:XX\U+73af\U+5883\U+5de5\U+7a0b\U+6709\U+9650\U+516c\U+53f8
  7
StandardChinese
100
AcDbText
  0
TEXT
  5
41
330
17
100
AcDbEntity
  8
TEXT
100
AcDbText
 10
808.0
 20
49.0
 30
0.0
 40
2.5
  1
\U+5de5\U+7a0b\U+540d\U+79f0:XX\U+6c61\U+6c34\U+5904\U+7406\U+5382\U+5de5\U+7a0b
  7
StandardChinese
100
AcDbText
  0
TEXT
  5
42
330
17
100
AcDbEntity
  8
TEXT
100
AcDbText
 10
808.0
 20
57.0
 30
0.0
 40
2.5
  1
\U+56fe\U+540d:\U+5e9f\U+6c34\U+5904\U+7406\U+5de5\U+827a\U+6d41\U+7a0b\U+56fe
  7
StandardChinese
100
AcDbText
  0
TEXT
  5
43
330
17
100
AcDbEntity
  8
TEXT
100
AcDbText
 10
918.0
 20
37.0
 30
0.0
 40
2.5
  1
\U+56fe\U+53f7:\U+56fe01
  7
StandardChinese
100
AcDbText
  0
TEXT
  5
44
330
17
100
AcDbEntity
  8
TEXT
100
AcDbText
 10
918.0
 20
49.0
 30
0.0
 40
2.5
  1
\U+6bd4\U+4f8b:--
  7
StandardChinese
100
AcDbText
  0
TEXT
  5
45
330
17
100
AcDbEntity
  8
TEXT
100
AcDbText
 10
918.0
 20
57.0
 30
0.0
 40
2.5
  1
\U+65e5\U+671f:2026.05
  7
StandardChinese
100
AcDbText
  0
LWPOLYLINE
  5
46
330
17
100
AcDbEntity
  8
STRUCTURE
100
AcDbPolyline
 90
5
 70
0
 10
50.0
 20
80.0
 10
90.0
 20
80.0
 10
90.0
 20
84.0
 10
50.0
 20
84.0
 10
50.0
 20
80.0
  0
LWPOLYLINE
  5
47
330
17
100
AcDbEntity
  8
STRUCTURE
100
AcDbPolyline
 90
5
 70
0
 10
50.0
 20
84.0
 10
50.0
 20
125.0
 10
53.0
 20
125.0
 10
53.0
 20
84.0
 10
50.0
 20
84.0
  0
LWPOLYLINE
  5
48
330
17
100
AcDbEntity
  8
STRUCTURE
100
AcDbPolyline
 90
5
 70
0
 10
87.0
 20
84.0
 10
87.0
 20
125.0
 10
90.0
 20
125.0
 10
90.0
 20
84.0
 10
87.0
 20
84.0
  0
LWPOLYLINE
  5
49
330
17
100
AcDbEntity
  8
STRUCTURE
100
AcDbPolyline
 90
2
 70
0
 10
50.0
 20
125.0
 10
53.0
 20
125.0
  0
LWPOLYLINE
  5
4A
330
17
100
AcDbEntity
  8
STRUCTURE
100
AcDbPolyline
 90
2
 70
0
 10
87.0
 20
125.0
 10
90.0
 20
125.0
  0
LINE
  5
4B
330
17
100
AcDbEntity
  8
WATER_LINE
100
AcDbLine
 10
54.0
 20
112.7
 30
0.0
 11
86.0
 21
112.7
 31
0.0
  0
TEXT
  5
4C
330
17
100
AcDbEntity
  8
DIMENSION
100
AcDbText
 10
48.0
 20
82.0
 30
0.0
 40
2.0
  1
-1.50
  7
StandardChinese
100
AcDbText
  0
TEXT
  5
4D
330
17
100
AcDbEntity
  8
DIMENSION
100
AcDbText
 10
48.0
 20
122.0
 30
0.0
 40
2.0
  1
0.00
  7
StandardChinese
100
AcDbText
  0
TEXT
  5
4E
330
17
100
AcDbEntity
  8
TEXT
100
AcDbText
 10
70.0
 20
130.0
 30
0.0
 40
3.5
  1
\U+683c\U+6805\U+4e95
  7
StandardChinese
100
AcDbText
  0
LINE
  5
4F
330
17
100
AcDbEntity
  8
STRUCTURE
100
AcDbLine
 10
60.0
 20
89.0
 30
0.0
 11
60.0
 21
120.0
 31
0.0
  0
LINE
  5
50
330
17
100
AcDbEntity
  8
STRUCTURE
100
AcDbLine
 10
70.0
 20
89.0
 30
0.0
 11
70.0
 21
120.0
 31
0.0
  0
LINE
  5
51
330
17
100
AcDbEntity
  8
STRUCTURE
100
AcDbLine
 10
80.0
 20
89.0
 30
0.0
 11
80.0
 21
120.0
 31
0.0
  0
TEXT
  5
52
330
17
100
AcDbEntity
  8
DIMENSION
100
AcDbText
 10
70.0
 20
72.0
 30
0.0
 40
2.0
  1
2.0x1.0x1.5m
  7
StandardChinese
100
AcDbText
  0
TEXT
  5
53
330
17
100
AcDbEntity
  8
TEXT
100
AcDbText
 10
25.0
 20
112.7
 30
0.0
 40
3.0
  1
\U+8fdb\U+6c34
  7
StandardChinese
100
AcDbText
  0
LINE
  5
54
330
17
100
AcDbEntity
  8
WATER_PIPE
100
AcDbLine
 10
20.0
 20
112.7
 30
0.0
 11
50.0
 21
112.7
 31
0.0
  0
LWPOLYLINE
  5
55
330
17
100
AcDbEntity
  8
STRUCTURE
100
AcDbPolyline
 90
5
 70
0
 10
120.0
 20
5.0
 10
190.0
 20
5.0
 10
190.0
 20
9.0
 10
120.0
 20
9.0
 10
120.0
 20
5.0
  0
LWPOLYLINE
  5
56
330
17
100
AcDbEntity
  8
STRUCTURE
100
AcDbPolyline
 90
5
 70
0
 10
120.0
 20
9.0
 10
120.0
 20
155.0
 10
123.0
 20
155.0
 10
123.0
 20
9.0
 10
120.0
 20
9.0
  0
LWPOLYLINE
  5
57
330
17
100
AcDbEntity
  8
STRUCTURE
100
AcDbPolyline
 90
5
 70
0
 10
187.0
 20
9.0
 10
187.0
 20
155.0
 10
190.0
 20
155.0
 10
190.0
 20
9.0
 10
187.0
 20
9.0
  0
LWPOLYLINE
  5
58
330
17
100
AcDbEntity
  8
STRUCTURE
100
AcDbPolyline
 90
2
 70
0
 10
120.0
 20
155.0
 10
123.0
 20
155.0
  0
LWPOLYLINE
  5
59
330
17
100
AcDbEntity
  8
STRUCTURE
100
AcDbPolyline
 90
2
 70
0
 10
187.0
 20
155.0
 10
190.0
 20
155.0
  0
LINE
  5
5A
330
17
100
AcDbEntity
  8
WATER_LINE
100
AcDbLine
 10
124.0
 20
125.80000000000001
 30
0.0
 11
186.0
 21
125.80000000000001
 31
0.0
  0
TEXT
  5
5B
330
17
100
AcDbEntity
  8
DIMENSION
100
AcDbText
 10
118.0
 20
7.0
 30
0.0
 40
2.0
  1
-5.00
  7
StandardChinese
100
AcDbText
  0
TEXT
  5
5C
330
17
100
AcDbEntity
  8
DIMENSION
100
AcDbText
 10
118.0
 20
152.0
 30
0.0
 40
2.0
  1
0.00
  7
StandardChinese
100
AcDbText
  0
TEXT
  5
5D
330
17
100
AcDbEntity
  8
TEXT
100
AcDbText
 10
155.0
 20
160.0
 30
0.0
 40
3.5
  1
\U+8c03\U+8282\U+6c60
  7
StandardChinese
100
AcDbText
  0
TEXT
  5
5E
330
17
100
AcDbEntity
  8
DIMENSION
100
AcDbText
 10
155.0
 20
-3.0
 30
0.0
 40
2.0
  1
10.0x8.0x5.0m
  7
StandardChinese
100
AcDbText
  0
TEXT
  5
5F
330
17
100
AcDbEntity
  8
TEXT
100
AcDbText
 10
155.0
 20
-9.0
 30
0.0
 40
2.0
  1
HRT=8h
  7
StandardChinese
100
AcDbText
  0
CIRCLE
  5
60
330
17
100
AcDbEntity
  8
EQUIPMENT
100
AcDbCircle
 10
98.0
 20
112.7
 30
0.0
 40
4.0
  0
LWPOLYLINE
  5
61
330
17
100
AcDbEntity
  8
EQUIPMENT
100
AcDbPolyline
 90
3
 70
0
 10
91.0
 20
110.7
 10
96.0
 20
112.7
 10
91.0
 20
114.7
  0
TEXT
  5
62
330
17
100
AcDbEntity
  8
TEXT
100
AcDbText
 10
98.0
 20
121.7
 30
0.0
 40
2.0
  1
\U+63d0\U+5347\U+6cf5
  7
StandardChinese
100
AcDbText
  0
LINE
  5
63
330
17
100
AcDbEntity
  8
WATER_PIPE
100
AcDbLine
 10
90.0
 20
112.7
 30
0.0
 11
105.0
 21
112.7
 31
0.0
  0
LINE
  5
64
330
17
100
AcDbEntity
  8
WATER_PIPE
100
AcDbLine
 10
105.0
 20
112.7
 30
0.0
 11
105.0
 21
125.80000000000001
 31
0.0
  0
LINE
  5
65
330
17
100
AcDbEntity
  8
WATER_PIPE
100
AcDbLine
 10
105.0
 20
125.80000000000001
 30
0.0
 11
120.0
 21
125.80000000000001
 31
0.0
  0
LWPOLYLINE
  5
66
330
17
100
AcDbEntity
  8
STRUCTURE
100
AcDbPolyline
 90
5
 70
0
 10
220.0
 20
20.0
 10
275.0
 20
20.0
 10
275.0
 20
24.0
 10
220.0
 20
24.0
 10
220.0
 20
20.0
  0
LWPOLYLINE
  5
67
330
17
100
AcDbEntity
  8
STRUCTURE
100
AcDbPolyline
 90
5
 70
0
 10
220.0
 20
24.0
 10
220.0
 20
185.0
 10
223.0
 20
185.0
 10
223.0
 20
24.0
 10
220.0
 20
24.0
  0
LWPOLYLINE
  5
68
330
17
100
AcDbEntity
  8
STRUCTURE
100
AcDbPolyline
 90
5
 70
0
 10
272.0
 20
24.0
 10
272.0
 20
185.0
 10
275.0
 20
185.0
 10
275.0
 20
24.0
 10
272.0
 20
24.0
  0
LWPOLYLINE
  5
69
330
17
100
AcDbEntity
  8
STRUCTURE
100
AcDbPolyline
 90
2
 70
0
 10
220.0
 20
185.0
 10
223.0
 20
185.0
  0
LWPOLYLINE
  5
6A
330
17
100
AcDbEntity
  8
STRUCTURE
100
AcDbPolyline
 90
2
 70
0
 10
272.0
 20
185.0
 10
275.0
 20
185.0
  0
LINE
  5
6B
330
17
100
AcDbEntity
  8
WATER_LINE
100
AcDbLine
 10
224.0
 20
144.75
 30
0.0
 11
271.0
 21
144.75
 31
0.0
  0
TEXT
  5
6C
330
17
100
AcDbEntity
  8
DIMENSION
100
AcDbText
 10
218.0
 20
22.0
 30
0.0
 40
2.0
  1
-5.50
  7
StandardChinese
100
AcDbText
  0
TEXT
  5
6D
330
17
100
AcDbEntity
  8
DIMENSION
100
AcDbText
 10
218.0
 20
182.0
 30
0.0
 40
2.0
  1
0.00
  7
StandardChinese
100
AcDbText
  0
TEXT
  5
6E
330
17
100
AcDbEntity
  8
TEXT
100
AcDbText
 10
247.5
 20
190.0
 30
0.0
 40
3.5
  1
\U+6c34\U+89e3\U+9178\U+5316\U+6c60
  7
StandardChinese
100
AcDbText
  0
TEXT
  5
6F
330
17
100
AcDbEntity
  8
DIMENSION
100
AcDbText
 10
247.5
 20
12.0
 30
0.0
 40
2.0
  1
8.0x6.0x5.5m
  7
StandardChinese
100
AcDbText
  0
TEXT
  5
70
330
17
100
AcDbEntity
  8
TEXT
100
AcDbText
 10
247.5
 20
6.0
 30
0.0
 40
2.0
  1
HRT=4h
  7
StandardChinese
100
AcDbText
  0
CIRCLE
  5
71
330
17
100
AcDbEntity
  8
EQUIPMENT
100
AcDbCircle
 10
230.0
 20
35.0
 30
0.0
 40
3.0
  0
CIRCLE
  5
72
330
17
100
AcDbEntity
  8
EQUIPMENT
100
AcDbCircle
 10
230.0
 20
65.0
 30
0.0
 40
3.0
  0
CIRCLE
  5
73
330
17
100
AcDbEntity
  8
EQUIPMENT
100
AcDbCircle
 10
242.0
 20
35.0
 30
0.0
 40
3.0
  0
CIRCLE
  5
74
330
17
100
AcDbEntity
  8
EQUIPMENT
100
AcDbCircle
 10
242.0
 20
65.0
 30
0.0
 40
3.0
  0
CIRCLE
  5
75
330
17
100
AcDbEntity
  8
EQUIPMENT
100
AcDbCircle
 10
254.0
 20
35.0
 30
0.0
 40
3.0
  0
CIRCLE
  5
76
330
17
100
AcDbEntity
  8
EQUIPMENT
100
AcDbCircle
 10
254.0
 20
65.0
 30
0.0
 40
3.0
  0
CIRCLE
  5
77
330
17
100
AcDbEntity
  8
EQUIPMENT
100
AcDbCircle
 10
266.0
 20
35.0
 30
0.0
 40
3.0
  0
CIRCLE
  5
78
330
17
100
AcDbEntity
  8
EQUIPMENT
100
AcDbCircle
 10
266.0
 20
65.0
 30
0.0
 40
3.0
  0
LINE
  5
79
330
17
100
AcDbEntity
  8
WATER_PIPE
100
AcDbLine
 10
190.0
 20
125.80000000000001
 30
0.0
 11
220.0
 21
144.75
 31
0.0
  0
LWPOLYLINE
  5
7A
330
17
100
AcDbEntity
  8
STRUCTURE
100
AcDbPolyline
 90
5
 70
0
 10
305.0
 20
20.0
 10
425.0
 20
20.0
 10
425.0
 20
24.0
 10
305.0
 20
24.0
 10
305.0
 20
20.0
  0
LWPOLYLINE
  5
7B
330
17
100
AcDbEntity
  8
STRUCTURE
100
AcDbPolyline
 90
5
 70
0
 10
305.0
 20
24.0
 10
305.0
 20
170.0
 10
308.0
 20
170.0
 10
308.0
 20
24.0
 10
305.0
 20
24.0
  0
LWPOLYLINE
  5
7C
330
17
100
AcDbEntity
  8
STRUCTURE
100
AcDbPolyline
 90
5
 70
0
 10
422.0
 20
24.0
 10
422.0
 20
170.0
 10
425.0
 20
170.0
 10
425.0
 20
24.0
 10
422.0
 20
24.0
  0
LWPOLYLINE
  5
7D
330
17
100
AcDbEntity
  8
STRUCTURE
100
AcDbPolyline
 90
2
 70
0
 10
305.0
 20
170.0
 10
308.0
 20
170.0
  0
LWPOLYLINE
  5
7E
330
17
100
AcDbEntity
  8
STRUCTURE
100
AcDbPolyline
 90
2
 70
0
 10
422.0
 20
170.0
 10
425.0
 20
170.0
  0
LINE
  5
7F
330
17
100
AcDbEntity
  8
WATER_LINE
100
AcDbLine
 10
309.0
 20
140.8
 30
0.0
 11
421.0
 21
140.8
 31
0.0
  0
TEXT
  5
80
330
17
100
AcDbEntity
  8
DIMENSION
100
AcDbText
 10
303.0
 20
22.0
 30
0.0
 40
2.0
  1
-5.00
  7
StandardChinese
100
AcDbText
  0
TEXT
  5
81
330
17
100
AcDbEntity
  8
DIMENSION
100
AcDbText
 10
303.0
 20
167.0
 30
0.0
 40
2.0
  1
0.00
  7
StandardChinese
100
AcDbText
  0
TEXT
  5
82
330
17
100
AcDbEntity
  8
TEXT
100
AcDbText
 10
365.0
 20
175.0
 30
0.0
 40
3.5
  1
A/O\U+751f\U+5316\U+6c60
  7
StandardChinese
100
AcDbText
  0
TEXT
  5
83
330
17
100
AcDbEntity
  8
DIMENSION
100
AcDbText
 10
365.0
 20
12.0
 30
0.0
 40
2.0
  1
A\U+6c604x8x5m  O\U+6c6012x8x5m
  7
StandardChinese
100
AcDbText
  0
TEXT
  5
84
330
17
100
AcDbEntity
  8
TEXT
100
AcDbText
 10
365.0
 20
6.0
 30
0.0
 40
2.0
  1
MLSS=3500mg/L HRT=12h
  7
StandardChinese
100
AcDbText
  0
LINE
  5
85
330
17
100
AcDbEntity
  8
STRUCTURE
100
AcDbLine
 10
335.0
 20
24.0
 30
0.0
 11
335.0
 21
165.0
 31
0.0
  0
TEXT
  5
86
330
17
100
AcDbEntity
  8
TEXT
100
AcDbText
 10
319.4
 20
95.0
 30
0.0
 40
4.0
  1
A
  7
StandardChinese
100
AcDbText
  0
TEXT
  5
87
330
17
100
AcDbEntity
  8
TEXT
100
AcDbText
 10
379.4
 20
95.0
 30
0.0
 40
4.0
  1
O
  7
StandardChinese
100
AcDbText
  0
CIRCLE
  5
88
330
17
100
AcDbEntity
  8
AIR_PIPE
100
AcDbCircle
 10
341.0
 20
28.0
 30
0.0
 40
2.0
  0
CIRCLE
  5
89
330
17
100
AcDbEntity
  8
AIR_PIPE
100
AcDbCircle
 10
351.0
 20
28.0
 30
0.0
 40
2.0
  0
CIRCLE
  5
8A
330
17
100
AcDbEntity
  8
AIR_PIPE
100
AcDbCircle
 10
361.0
 20
28.0
 30
0.0
 40
2.0
  0
CIRCLE
  5
8B
330
17
100
AcDbEntity
  8
AIR_PIPE
100
AcDbCircle
 10
371.0
 20
28.0
 30
0.0
 40
2.0
  0
CIRCLE
  5
8C
330
17
100
AcDbEntity
  8
AIR_PIPE
100
AcDbCircle
 10
381.0
 20
28.0
 30
0.0
 40
2.0
  0
CIRCLE
  5
8D
330
17
100
AcDbEntity
  8
AIR_PIPE
100
AcDbCircle
 10
391.0
 20
28.0
 30
0.0
 40
2.0
  0
CIRCLE
  5
8E
330
17
100
AcDbEntity
  8
AIR_PIPE
100
AcDbCircle
 10
401.0
 20
28.0
 30
0.0
 40
2.0
  0
CIRCLE
  5
8F
330
17
100
AcDbEntity
  8
AIR_PIPE
100
AcDbCircle
 10
411.0
 20
28.0
 30
0.0
 40
2.0
  0
LINE
  5
90
330
17
100
AcDbEntity
  8
WATER_PIPE
100
AcDbLine
 10
275.0
 20
144.75
 30
0.0
 11
305.0
 21
140.8
 31
0.0
  0
LWPOLYLINE
  5
91
330
17
100
AcDbEntity
  8
STRUCTURE
100
AcDbPolyline
 90
5
 70
0
 10
460.0
 20
50.0
 10
510.0
 20
50.0
 10
510.0
 20
54.0
 10
460.0
 20
54.0
 10
460.0
 20
50.0
  0
LWPOLYLINE
  5
92
330
17
100
AcDbEntity
  8
STRUCTURE
100
AcDbPolyline
 90
5
 70
0
 10
460.0
 20
54.0
 10
460.0
 20
185.0
 10
463.0
 20
185.0
 10
463.0
 20
54.0
 10
460.0
 20
54.0
  0
LWPOLYLINE
  5
93
330
17
100
AcDbEntity
  8
STRUCTURE
100
AcDbPolyline
 90
5
 70
0
 10
507.0
 20
54.0
 10
507.0
 20
185.0
 10
510.0
 20
185.0
 10
510.0
 20
54.0
 10
507.0
 20
54.0
  0
LWPOLYLINE
  5
94
330
17
100
AcDbEntity
  8
STRUCTURE
100
AcDbPolyline
 90
2
 70
0
 10
460.0
 20
185.0
 10
463.0
 20
185.0
  0
LWPOLYLINE
  5
95
330
17
100
AcDbEntity
  8
STRUCTURE
100
AcDbPolyline
 90
2
 70
0
 10
507.0
 20
185.0
 10
510.0
 20
185.0
  0
LINE
  5
96
330
17
100
AcDbEntity
  8
WATER_LINE
100
AcDbLine
 10
464.0
 20
165.35
 30
0.0
 11
506.0
 21
165.35
 31
0.0
  0
TEXT
  5
97
330
17
100
AcDbEntity
  8
DIMENSION
100
AcDbText
 10
458.0
 20
52.0
 30
0.0
 40
2.0
  1
-4.50
  7
StandardChinese
100
AcDbText
  0
TEXT
  5
98
330
17
100
AcDbEntity
  8
DIMENSION
100
AcDbText
 10
458.0
 20
182.0
 30
0.0
 40
2.0
  1
0.00
  7
StandardChinese
100
AcDbText
  0
TEXT
  5
99
330
17
100
AcDbEntity
  8
TEXT
100
AcDbText
 10
485.0
 20
190.0
 30
0.0
 40
3.5
  1
\U+4e8c\U+6c89\U+6c60
  7
StandardChinese
100
AcDbText
  0
TEXT
  5
9A
330
17
100
AcDbEntity
  8
DIMENSION
100
AcDbText
 10
485.0
 20
42.0
 30
0.0
 40
2.0
  1
D=12m H=4.5m
  7
StandardChinese
100
AcDbText
  0
LINE
  5
9B
330
17
100
AcDbEntity
  8
WATER_PIPE
100
AcDbLine
 10
425.0
 20
140.8
 30
0.0
 11
460.0
 21
165.35
 31
0.0
  0
LWPOLYLINE
  5
9C
330
17
100
AcDbEntity
  8
STRUCTURE
100
AcDbPolyline
 90
5
 70
0
 10
530.0
 20
80.0
 10
560.0
 20
80.0
 10
560.0
 20
84.0
 10
530.0
 20
84.0
 10
530.0
 20
80.0
  0
LWPOLYLINE
  5
9D
330
17
100
AcDbEntity
  8
STRUCTURE
100
AcDbPolyline
 90
5
 70
0
 10
530.0
 20
84.0
 10
530.0
 20
170.0
 10
533.0
 20
170.0
 10
533.0
 20
84.0
 10
530.0
 20
84.0
  0
LWPOLYLINE
  5
9E
330
17
100
AcDbEntity
  8
STRUCTURE
100
AcDbPolyline
 90
5
 70
0
 10
557.0
 20
84.0
 10
557.0
 20
170.0
 10
560.0
 20
170.0
 10
560.0
 20
84.0
 10
557.0
 20
84.0
  0
LWPOLYLINE
  5
9F
330
17
100
AcDbEntity
  8
STRUCTURE
100
AcDbPolyline
 90
2
 70
0
 10
530.0
 20
170.0
 10
533.0
 20
170.0
  0
LWPOLYLINE
  5
A0
330
17
100
AcDbEntity
  8
STRUCTURE
100
AcDbPolyline
 90
2
 70
0
 10
557.0
 20
170.0
 10
560.0
 20
170.0
  0
LINE
  5
A1
330
17
100
AcDbEntity
  8
WATER_LINE
100
AcDbLine
 10
534.0
 20
152.8
 30
0.0
 11
556.0
 21
152.8
 31
0.0
  0
TEXT
  5
A2
330
17
100
AcDbEntity
  8
DIMENSION
100
AcDbText
 10
528.0
 20
82.0
 30
0.0
 40
2.0
  1
-3.00
  7
StandardChinese
100
AcDbText
  0
TEXT
  5
A3
330
17
100
AcDbEntity
  8
DIMENSION
100
AcDbText
 10
528.0
 20
167.0
 30
0.0
 40
2.0
  1
0.00
  7
StandardChinese
100
AcDbText
  0
TEXT
  5
A4
330
17
100
AcDbEntity
  8
TEXT
100
AcDbText
 10
545.0
 20
175.0
 30
0.0
 40
3.5
  1
\U+6df1\U+5ea6\U+5904\U+7406
  7
StandardChinese
100
AcDbText
  0
LINE
  5
A5
330
17
100
AcDbEntity
  8
WATER_PIPE
100
AcDbLine
 10
510.0
 20
165.35
 30
0.0
 11
530.0
 21
152.8
 31
0.0
  0
LWPOLYLINE
  5
A6
330
17
100
AcDbEntity
  8
STRUCTURE
100
AcDbPolyline
 90
5
 70
0
 10
530.0
 20
35.0
 10
560.0
 20
35.0
 10
560.0
 20
39.0
 10
530.0
 20
39.0
 10
530.0
 20
35.0
  0
LWPOLYLINE
  5
A7
330
17
100
AcDbEntity
  8
STRUCTURE
100
AcDbPolyline
 90
5
 70
0
 10
530.0
 20
39.0
 10
530.0
 20
125.0
 10
533.0
 20
125.0
 10
533.0
 20
39.0
 10
530.0
 20
39.0
  0
LWPOLYLINE
  5
A8
330
17
100
AcDbEntity
  8
STRUCTURE
100
AcDbPolyline
 90
5
 70
0
 10
557.0
 20
39.0
 10
557.0
 20
125.0
 10
560.0
 20
125.0
 10
560.0
 20
39.0
 10
557.0
 20
39.0
  0
LWPOLYLINE
  5
A9
330
17
100
AcDbEntity
  8
STRUCTURE
100
AcDbPolyline
 90
2
 70
0
 10
530.0
 20
125.0
 10
533.0
 20
125.0
  0
LWPOLYLINE
  5
AA
330
17
100
AcDbEntity
  8
STRUCTURE
100
AcDbPolyline
 90
2
 70
0
 10
557.0
 20
125.0
 10
560.0
 20
125.0
  0
LINE
  5
AB
330
17
100
AcDbEntity
  8
WATER_LINE
100
AcDbLine
 10
534.0
 20
107.8
 30
0.0
 11
556.0
 21
107.8
 31
0.0
  0
TEXT
  5
AC
330
17
100
AcDbEntity
  8
DIMENSION
100
AcDbText
 10
528.0
 20
37.0
 30
0.0
 40
2.0
  1
-3.00
  7
StandardChinese
100
AcDbText
  0
TEXT
  5
AD
330
17
100
AcDbEntity
  8
DIMENSION
100
AcDbText
 10
528.0
 20
122.0
 30
0.0
 40
2.0
  1
0.00
  7
StandardChinese
100
AcDbText
  0
TEXT
  5
AE
330
17
100
AcDbEntity
  8
TEXT
100
AcDbText
 10
545.0
 20
130.0
 30
0.0
 40
3.5
  1
\U+6d88\U+6bd2\U+6c60
  7
StandardChinese
100
AcDbText
  0
LINE
  5
AF
330
17
100
AcDbEntity
  8
WATER_PIPE
100
AcDbLine
 10
560.0
 20
152.8
 30
0.0
 11
565.0
 21
152.8
 31
0.0
  0
LINE
  5
B0
330
17
100
AcDbEntity
  8
WATER_PIPE
100
AcDbLine
 10
565.0
 20
152.8
 30
0.0
 11
565.0
 21
107.8
 31
0.0
  0
LINE
  5
B1
330
17
100
AcDbEntity
  8
WATER_PIPE
100
AcDbLine
 10
565.0
 20
107.8
 30
0.0
 11
530.0
 21
107.8
 31
0.0
  0
TEXT
  5
B2
330
17
100
AcDbEntity
  8
TEXT
100
AcDbText
 10
575.0
 20
107.8
 30
0.0
 40
3.0
  1
\U+51fa\U+6c34
  7
StandardChinese
100
AcDbText
  0
LINE
  5
B3
330
17
100
AcDbEntity
  8
WATER_PIPE
100
AcDbLine
 10
560.0
 20
107.8
 30
0.0
 11
590.0
 21
107.8
 31
0.0
  0
LWPOLYLINE
  5
B4
330
17
100
AcDbEntity
  8
STRUCTURE
100
AcDbPolyline
 90
5
 70
0
 10
335.0
 20
200.0
 10
395.0
 20
200.0
 10
395.0
 20
225.0
 10
335.0
 20
225.0
 10
335.0
 20
200.0
  0
TEXT
  5
B5
330
17
100
AcDbEntity
  8
TEXT
100
AcDbText
 10
365.0
 20
212.0
 30
0.0
 40
3.0
  1
\U+9f13\U+98ce\U+673a\U+623f
  7
StandardChinese
100
AcDbText
  0
TEXT
  5
B6
330
17
100
AcDbEntity
  8
TEXT
100
AcDbText
 10
365.0
 20
205.0
 30
0.0
 40
2.0
  1
GRB-80x3\U+53f0
  7
StandardChinese
100
AcDbText
  0
LINE
  5
B7
330
17
100
AcDbEntity
  8
AIR_PIPE
100
AcDbLine
 10
365.0
 20
200.0
 30
0.0
 11
365.0
 21
170.0
 31
0.0
  0
TEXT
  5
B8
330
17
100
AcDbEntity
  8
TEXT
100
AcDbText
 10
365.0
 20
189.0
 30
0.0
 40
2.0
  1
\U+7a7a\U+6c14\U+7ba1
  7
StandardChinese
100
AcDbText
  0
LINE
  5
B9
330
17
100
AcDbEntity
  8
AIR_PIPE
100
AcDbLine
 10
365.0
 20
170.0
 30
0.0
 11
341.0
 21
170.0
 31
0.0
  0
LINE
  5
BA
330
17
100
AcDbEntity
  8
AIR_PIPE
100
AcDbLine
 10
341.0
 20
170.0
 30
0.0
 11
413.0
 21
170.0
 31
0.0
  0
LWPOLYLINE
  5
BB
330
17
100
AcDbEntity
  8
STRUCTURE
100
AcDbPolyline
 90
5
 70
0
 10
525.0
 20
155.0
 10
565.0
 20
155.0
 10
565.0
 20
180.0
 10
525.0
 20
180.0
 10
525.0
 20
155.0
  0
TEXT
  5
BC
330
17
100
AcDbEntity
  8
TEXT
100
AcDbText
 10
545.0
 20
167.0
 30
0.0
 40
3.0
  1
\U+52a0\U+836f\U+95f4
  7
StandardChinese
100
AcDbText
  0
TEXT
  5
BD
330
17
100
AcDbEntity
  8
TEXT
100
AcDbText
 10
545.0
 20
160.0
 30
0.0
 40
2.0
  1
PAC/PAM
  7
StandardChinese
100
AcDbText
  0
LINE
  5
BE
330
17
100
AcDbEntity
  8
WATER_PIPE
100
AcDbLine
 10
545.0
 20
155.0
 30
0.0
 11
545.0
 21
125.0
 31
0.0
  0
TEXT
  5
BF
330
17
100
AcDbEntity
  8
TEXT
100
AcDbText
 10
545.0
 20
144.0
 30
0.0
 40
2.0
  1
\U+836f\U+5242\U+7ba1
  7
StandardChinese
100
AcDbText
  0
LWPOLYLINE
  5
C0
330
17
100
AcDbEntity
  8
STRUCTURE
100
AcDbPolyline
 90
5
 70
0
 10
120.0
 20
90.0
 10
160.0
 20
90.0
 10
160.0
 20
94.0
 10
120.0
 20
94.0
 10
120.0
 20
90.0
  0
LWPOLYLINE
  5
C1
330
17
100
AcDbEntity
  8
STRUCTURE
100
AcDbPolyline
 90
5
 70
0
 10
120.0
 20
94.0
 10
120.0
 20
210.0
 10
123.0
 20
210.0
 10
123.0
 20
94.0
 10
120.0
 20
94.0
  0
LWPOLYLINE
  5
C2
330
17
100
AcDbEntity
  8
STRUCTURE
100
AcDbPolyline
 90
5
 70
0
 10
157.0
 20
94.0
 10
157.0
 20
210.0
 10
160.0
 20
210.0
 10
160.0
 20
94.0
 10
157.0
 20
94.0
  0
LWPOLYLINE
  5
C3
330
17
100
AcDbEntity
  8
STRUCTURE
100
AcDbPolyline
 90
2
 70
0
 10
120.0
 20
210.0
 10
123.0
 20
210.0
  0
LWPOLYLINE
  5
C4
330
17
100
AcDbEntity
  8
STRUCTURE
100
AcDbPolyline
 90
2
 70
0
 10
157.0
 20
210.0
 10
160.0
 20
210.0
  0
LINE
  5
C5
330
17
100
AcDbEntity
  8
WATER_LINE
100
AcDbLine
 10
124.0
 20
175.2
 30
0.0
 11
156.0
 21
175.2
 31
0.0
  0
TEXT
  5
C6
330
17
100
AcDbEntity
  8
DIMENSION
100
AcDbText
 10
118.0
 20
92.0
 30
0.0
 40
2.0
  1
-4.00
  7
StandardChinese
100
AcDbText
  0
TEXT
  5
C7
330
17
100
AcDbEntity
  8
DIMENSION
100
AcDbText
 10
118.0
 20
207.0
 30
0.0
 40
2.0
  1
0.00
  7
StandardChinese
100
AcDbText
  0
TEXT
  5
C8
330
17
100
AcDbEntity
  8
TEXT
100
AcDbText
 10
140.0
 20
215.0
 30
0.0
 40
3.5
  1
\U+6c61\U+6ce5\U+6d53\U+7f29\U+6c60
  7
StandardChinese
100
AcDbText
  0
TEXT
  5
C9
330
17
100
AcDbEntity
  8
DIMENSION
100
AcDbText
 10
140.0
 20
82.0
 30
0.0
 40
2.0
  1
D=6m
  7
StandardChinese
100
AcDbText
  0
LINE
  5
CA
330
17
100
AcDbEntity
  8
SLUDGE_PIPE
100
AcDbLine
 10
485.0
 20
50.0
 30
0.0
 11
485.0
 21
186.0
 31
0.0
  0
TEXT
  5
CB
330
17
100
AcDbEntity
  8
TEXT
100
AcDbText
 10
485.0
 20
122.0
 30
0.0
 40
2.0
  1
\U+5269\U+4f59\U+6c61\U+6ce5
  7
StandardChinese
100
AcDbText
  0
LINE
  5
CC
330
17
100
AcDbEntity
  8
SLUDGE_PIPE
100
AcDbLine
 10
485.0
 20
186.0
 30
0.0
 11
160.0
 21
186.0
 31
0.0
  0
LWPOLYLINE
  5
CD
330
17
100
AcDbEntity
  8
STRUCTURE
100
AcDbPolyline
 90
5
 70
0
 10
200.0
 20
90.0
 10
250.0
 20
90.0
 10
250.0
 20
120.0
 10
200.0
 20
120.0
 10
200.0
 20
90.0
  0
TEXT
  5
CE
330
17
100
AcDbEntity
  8
TEXT
100
AcDbText
 10
225.0
 20
110.0
 30
0.0
 40
3.0
  1
\U+6c61\U+6ce5\U+8131\U+6c34\U+95f4
  7
StandardChinese
100
AcDbText
  0
TEXT
  5
CF
330
17
100
AcDbEntity
  8
TEXT
100
AcDbText
 10
225.0
 20
102.0
 30
0.0
 40
2.0
  1
\U+53e0\U+87ba\U+673aX-301
  7
StandardChinese
100
AcDbText
  0
TEXT
  5
D0
330
17
100
AcDbEntity
  8
TEXT
100
AcDbText
 10
225.0
 20
95.0
 30
0.0
 40
2.0
  1
50kgDS/h
  7
StandardChinese
100
AcDbText
  0
LINE
  5
D1
330
17
100
AcDbEntity
  8
SLUDGE_PIPE
100
AcDbLine
 10
140.0
 20
90.0
 30
0.0
 11
140.0
 21
105.0
 31
0.0
  0
LINE
  5
D2
330
17
100
AcDbEntity
  8
SLUDGE_PIPE
100
AcDbLine
 10
140.0
 20
105.0
 30
0.0
 11
200.0
 21
105.0
 31
0.0
  0
TEXT
  5
D3
330
17
100
AcDbEntity
  8
TEXT
100
AcDbText
 10
260.0
 20
105.0
 30
0.0
 40
2.5
  1
\U+6c61\U+6ce5\U+5916\U+8fd0
  7
StandardChinese
100
AcDbText
  0
LINE
  5
D4
330
17
100
AcDbEntity
  8
RETURN_PIPE
100
AcDbLine
 10
480.0
 20
55.0
 30
0.0
 11
480.0
 21
162.0
 31
0.0
  0
LINE
  5
D5
330
17
100
AcDbEntity
  8
RETURN_PIPE
100
AcDbLine
 10
480.0
 20
162.0
 30
0.0
 11
315.0
 21
162.0
 31
0.0
  0
LINE
  5
D6
330
17
100
AcDbEntity
  8
RETURN_PIPE
100
AcDbLine
 10
315.0
 20
162.0
 30
0.0
 11
315.0
 21
95.0
 31
0.0
  0
LINE
  5
D7
330
17
100
AcDbEntity
  8
RETURN_PIPE
100
AcDbLine
 10
315.0
 20
95.0
 30
0.0
 11
310.0
 21
95.0
 31
0.0
  0
TEXT
  5
D8
330
17
100
AcDbEntity
  8
TEXT
100
AcDbText
 10
310.0
 20
167.0
 30
0.0
 40
2.0
  1
\U+6c61\U+6ce5\U+56de\U+6d41R=100%
  7
StandardChinese
100
AcDbText
  0
LINE
  5
D9
330
17
100
AcDbEntity
  8
RETURN_PIPE
100
AcDbLine
 10
401.0
 20
165.0
 30
0.0
 11
401.0
 21
180.0
 31
0.0
  0
LINE
  5
DA
330
17
100
AcDbEntity
  8
RETURN_PIPE
100
AcDbLine
 10
401.0
 20
180.0
 30
0.0
 11
323.0
 21
180.0
 31
0.0
  0
LINE
  5
DB
330
17
100
AcDbEntity
  8
RETURN_PIPE
100
AcDbLine
 10
323.0
 20
180.0
 30
0.0
 11
323.0
 21
170.0
 31
0.0
  0
TEXT
  5
DC
330
17
100
AcDbEntity
  8
TEXT
100
AcDbText
 10
365.0
 20
185.0
 30
0.0
 40
2.0
  1
\U+6df7\U+5408\U+6db2\U+56de\U+6d41IR=200%
  7
StandardChinese
100
AcDbText
  0
TEXT
  5
DD
330
17
100
AcDbEntity
  8
TEXT
100
AcDbText
 10
60.0
 20
375.0
 30
0.0
 40
3.0
  1
\U+7ba1\U+9053\U+56fe\U+4f8b:
  7
StandardChinese
100
AcDbText
  0
LINE
  5
DE
330
17
100
AcDbEntity
  8
WATER_PIPE
100
AcDbLine
 10
60.0
 20
365.0
 30
0.0
 11
80.0
 21
365.0
 31
0.0
  0
TEXT
  5
DF
330
17
100
AcDbEntity
  8
TEXT
100
AcDbText
 10
85.0
 20
363.0
 30
0.0
 40
2.0
  1
\U+6c61\U+6c34\U+7ba1
  7
StandardChinese
100
AcDbText
  0
LINE
  5
E0
330
17
100
AcDbEntity
  8
WATER_PIPE
100
AcDbLine
 10
60.0
 20
357.0
 30
0.0
 11
80.0
 21
357.0
 31
0.0
  0
TEXT
  5
E1
330
17
100
AcDbEntity
  8
TEXT
100
AcDbText
 10
85.0
 20
355.0
 30
0.0
 40
2.0
  1
\U+6c61\U+6ce5\U+7ba1
  7
StandardChinese
100
AcDbText
  0
LINE
  5
E2
330
17
100
AcDbEntity
  8
WATER_PIPE
100
AcDbLine
 10
60.0
 20
349.0
 30
0.0
 11
80.0
 21
349.0
 31
0.0
  0
TEXT
  5
E3
330
17
100
AcDbEntity
  8
TEXT
100
AcDbText
 10
85.0
 20
347.0
 30
0.0
 40
2.0
  1
\U+7a7a\U+6c14\U+7ba1
  7
StandardChinese
100
AcDbText
  0
LINE
  5
E4
330
17
100
AcDbEntity
  8
WATER_PIPE
100
AcDbLine
 10
60.0
 20
341.0
 30
0.0
 11
80.0
 21
341.0
 31
0.0
  0
TEXT
  5
E5
330
17
100
AcDbEntity
  8
TEXT
100
AcDbText
 10
85.0
 20
339.0
 30
0.0
 40
2.0
  1
\U+56de\U+6d41\U+7ba1
  7
StandardChinese
100
AcDbText
  0
TEXT
  5
E6
330
17
100
AcDbEntity
  8
TEXT
100
AcDbText
 10
200.0
 20
375.0
 30
0.0
 40
3.0
  1
\U+6d41\U+91cf\U+53c2\U+6570:
  7
StandardChinese
100
AcDbText
  0
TEXT
  5
E7
330
17
100
AcDbEntity
  8
TEXT
100
AcDbText
 10
200.0
 20
367.0
 30
0.0
 40
2.5
  1
Qd=5000m3/d(208.3m3/h)
  7
StandardChinese
100
AcDbText
  0
TEXT
  5
E8
330
17
100
AcDbEntity
  8
TEXT
100
AcDbText
 10
200.0
 20
362.0
 30
0.0
 40
2.5
  1
Qmax=250m3/h
  7
StandardChinese
100
AcDbText
  0
TEXT
  5
E9
330
17
100
AcDbEntity
  8
TEXT
100
AcDbText
 10
200.0
 20
357.0
 30
0.0
 40
2.5
  1
Qmin=104.2m3/h
  7
StandardChinese
100
AcDbText
  0
TEXT
  5
EA
330
17
100
AcDbEntity
  8
TEXT
100
AcDbText
 10
200.0
 20
352.0
 30
0.0
 40
2.5
  1
Qavg=208.3m3/h
  7
StandardChinese
100
AcDbText
  0
LWPOLYLINE
  5
EB
330
17
100
AcDbEntity
  8
BORDER
100
AcDbPolyline
 90
5
 70
0
 10
0.0
 20
0.0
 10
841.0
 20
0.0
 10
841.0
 20
594.0
 10
0.0
 20
594.0
 10
0.0
 20
0.0
  0
LWPOLYLINE
  5
EC
330
17
100
AcDbEntity
  8
BORDER
100
AcDbPolyline
 90
5
 70
0
 10
25.0
 20
25.0
 10
831.0
 20
25.0
 10
831.0
 20
584.0
 10
25.0
 20
584.0
 10
25.0
 20
25.0
  0
LINE
  5
ED
330
17
100
AcDbEntity
  8
TITLE_BLOCK
100
AcDbLine
 10
651.0
 20
10.0
 30
0.0
 11
831.0
 21
10.0
 31
0.0
  0
LINE
  5
EE
330
17
100
AcDbEntity
  8
TITLE_BLOCK
100
AcDbLine
 10
831.0
 20
10.0
 30
0.0
 11
831.0
 21
66.0
 31
0.0
  0
LINE
  5
EF
330
17
100
AcDbEntity
  8
TITLE_BLOCK
100
AcDbLine
 10
831.0
 20
66.0
 30
0.0
 11
651.0
 21
66.0
 31
0.0
  0
LINE
  5
F0
330
17
100
AcDbEntity
  8
TITLE_BLOCK
100
AcDbLine
 10
651.0
 20
66.0
 30
0.0
 11
651.0
 21
10.0
 31
0.0
  0
LINE
  5
F1
330
17
100
AcDbEntity
  8
TITLE_BLOCK
100
AcDbLine
 10
701.0
 20
10.0
 30
0.0
 11
701.0
 21
66.0
 31
0.0
  0
LINE
  5
F2
330
17
100
AcDbEntity
  8
TITLE_BLOCK
100
AcDbLine
 10
651.0
 20
24.0
 30
0.0
 11
701.0
 21
24.0
 31
0.0
  0
LINE
  5
F3
330
17
100
AcDbEntity
  8
TITLE_BLOCK
100
AcDbLine
 10
651.0
 20
38.0
 30
0.0
 11
701.0
 21
38.0
 31
0.0
  0
LINE
  5
F4
330
17
100
AcDbEntity
  8
TITLE_BLOCK
100
AcDbLine
 10
651.0
 20
52.0
 30
0.0
 11
701.0
 21
52.0
 31
0.0
  0
LINE
  5
F5
330
17
100
AcDbEntity
  8
TITLE_BLOCK
100
AcDbLine
 10
671.0
 20
10.0
 30
0.0
 11
671.0
 21
66.0
 31
0.0
  0
TEXT
  5
F6
330
17
100
AcDbEntity
  8
TITLE_TEXT
100
AcDbText
 10
661.0
 20
59.0
 30
0.0
 40
2.5
  1
SJ
100
AcDbText
  0
TEXT
  5
F7
330
17
100
AcDbEntity
  8
TITLE_TEXT
100
AcDbText
 10
661.0
 20
45.0
 30
0.0
 40
2.5
  1
JD
100
AcDbText
  0
TEXT
  5
F8
330
17
100
AcDbEntity
  8
TITLE_TEXT
100
AcDbText
 10
661.0
 20
31.0
 30
0.0
 40
2.5
  1
SH
100
AcDbText
  0
TEXT
  5
F9
330
17
100
AcDbEntity
  8
TITLE_TEXT
100
AcDbText
 10
661.0
 20
17.0
 30
0.0
 40
2.5
  1
PZ
100
AcDbText
  0
LINE
  5
FA
330
17
100
AcDbEntity
  8
TITLE_BLOCK
100
AcDbLine
 10
781.0
 20
10.0
 30
0.0
 11
781.0
 21
66.0
 31
0.0
  0
LINE
  5
FB
330
17
100
AcDbEntity
  8
TITLE_BLOCK
100
AcDbLine
 10
701.0
 20
54.0
 30
0.0
 11
781.0
 21
54.0
 31
0.0
  0
LINE
  5
FC
330
17
100
AcDbEntity
  8
TITLE_BLOCK
100
AcDbLine
 10
701.0
 20
22.0
 30
0.0
 11
781.0
 21
22.0
 31
0.0
  0
TEXT
  5
FD
330
17
100
AcDbEntity
  8
TITLE_TEXT
100
AcDbText
 10
741.0
 20
60.0
 30
0.0
 40
2.5
  1
GCMC
100
AcDbText
  0
TEXT
  5
FE
330
17
100
AcDbEntity
  8
TITLE_TEXT
100
AcDbText
 10
741.0
 20
46.0
 30
0.0
 40
2.5
  1
TZMC
100
AcDbText
  0
TEXT
  5
FF
330
17
100
AcDbEntity
  8
TITLE_TEXT
100
AcDbText
 10
741.0
 20
16.0
 30
0.0
 40
2.5
  1
SJDW
100
AcDbText
  0
LINE
  5
100
330
17
100
AcDbEntity
  8
TITLE_BLOCK
100
AcDbLine
 10
781.0
 20
24.0
 30
0.0
 11
831.0
 21
24.0
 31
0.0
  0
LINE
  5
101
330
17
100
AcDbEntity
  8
TITLE_BLOCK
100
AcDbLine
 10
781.0
 20
38.0
 30
0.0
 11
831.0
 21
38.0
 31
0.0
  0
LINE
  5
102
330
17
100
AcDbEntity
  8
TITLE_BLOCK
100
AcDbLine
 10
781.0
 20
52.0
 30
0.0
 11
831.0
 21
52.0
 31
0.0
  0
LINE
  5
103
330
17
100
AcDbEntity
  8
TITLE_BLOCK
100
AcDbLine
 10
801.0
 20
10.0
 30
0.0
 11
801.0
 21
66.0
 31
0.0
  0
TEXT
  5
104
330
17
100
AcDbEntity
  8
TITLE_TEXT
100
AcDbText
 10
791.0
 20
59.0
 30
0.0
 40
2.5
  1
RQ
100
AcDbText
  0
TEXT
  5
105
330
17
100
AcDbEntity
  8
TITLE_TEXT
100
AcDbText
 10
791.0
 20
45.0
 30
0.0
 40
2.5
  1
BL
100
AcDbText
  0
TEXT
  5
106
330
17
100
AcDbEntity
  8
TITLE_TEXT
100
AcDbText
 10
791.0
 20
31.0
 30
0.0
 40
2.5
  1
TB
100
AcDbText
  0
TEXT
  5
107
330
17
100
AcDbEntity
  8
TITLE_TEXT
100
AcDbText
 10
791.0
 20
17.0
 30
0.0
 40
2.5
  1
BH
100
AcDbText
  0
ENDSEC
  0
SECTION
  2
OBJECTS
  0
DICTIONARY
  5
A
330
0
100
AcDbDictionary
281
1
  3
ACAD_COLOR
350
B
  3
ACAD_GROUP
350
C
  3
ACAD_LAYOUT
350
D
  3
ACAD_MATERIAL
350
E
  3
ACAD_MLEADERSTYLE
350
F
  3
ACAD_MLINESTYLE
350
10
  3
ACAD_PLOTSETTINGS
350
11
  3
ACAD_PLOTSTYLENAME
350
12
  3
ACAD_SCALELIST
350
14
  3
ACAD_TABLESTYLE
350
15
  3
ACAD_VISUALSTYLE
350
16
  3
EZDXF_META
350
2D
  0
DICTIONARY
  5
B
330
A
100
AcDbDictionary
281
1
  0
DICTIONARY
  5
C
330
A
100
AcDbDictionary
281
1
  0
DICTIONARY
  5
D
330
A
100
AcDbDictionary
281
1
  3
Model
350
1A
  3
Layout1
350
1E
  0
DICTIONARY
  5
E
330
A
100
AcDbDictionary
281
1
  3
ByBlock
350
1F
  3
ByLayer
350
20
  3
Global
350
21
  0
DICTIONARY
  5
F
330
A
100
AcDbDictionary
281
1
  3
Standard
350
2C
  0
DICTIONARY
  5
10
330
A
100
AcDbDictionary
281
1
  3
Standard
350
22
  0
DICTIONARY
  5
11
330
A
100
AcDbDictionary
281
1
  0
ACDBDICTIONARYWDFLT
  5
12
330
A
100
AcDbDictionary
281
1
  3
Normal
350
13
100
AcDbDictionaryWithDefault
340
13
  0
ACDBPLACEHOLDER
  5
13
330
12
  0
DICTIONARY
  5
14
330
A
100
AcDbDictionary
281
1
  0
DICTIONARY
  5
15
330
A
100
AcDbDictionary
281
1
  0
DICTIONARY
  5
16
330
A
100
AcDbDictionary
281
1
  0
LAYOUT
  5
1A
330
D
100
AcDbPlotSettings
  1

  4
A3
  6

 40
7.5
 41
20.0
 42
7.5
 43
20.0
 44
420.0
 45
297.0
 46
0.0
 47
0.0
 48
0.0
 49
0.0
140
0.0
141
0.0
142
1.0
143
1.0
 70
1024
 72
1
 73
0
 74
5
  7

 75
16
 76
0
 77
2
 78
300
147
1.0
148
0.0
149
0.0
100
AcDbLayout
  1
Model
 70
1
 71
0
 10
0.0
 20
0.0
 11
420.0
 21
297.0
 12
0.0
 22
0.0
 32
0.0
 14
1e+20
 24
1e+20
 34
1e+20
 15
-1e+20
 25
-1e+20
 35
-1e+20
146
0.0
 13
0.0
 23
0.0
 33
0.0
 16
1.0
 26
0.0
 36
0.0
 17
0.0
 27
1.0
 37
0.0
 76
1
330
17
  0
LAYOUT
  5
1E
330
D
100
AcDbPlotSettings
  1

  4
A3
  6

 40
7.5
 41
20.0
 42
7.5
 43
20.0
 44
420.0
 45
297.0
 46
0.0
 47
0.0
 48
0.0
 49
0.0
140
0.0
141
0.0
142
1.0
143
1.0
 70
0
 72
1
 73
0
 74
5
  7

 75
16
 76
0
 77
2
 78
300
147
1.0
148
0.0
149
0.0
100
AcDbLayout
  1
Layout1
 70
1
 71
1
 10
0.0
 20
0.0
 11
420.0
 21
297.0
 12
0.0
 22
0.0
 32
0.0
 14
1e+20
 24
1e+20
 34
1e+20
 15
-1e+20
 25
-1e+20
 35
-1e+20
146
0.0
 13
0.0
 23
0.0
 33
0.0
 16
1.0
 26
0.0
 36
0.0
 17
0.0
 27
1.0
 37
0.0
 76
1
330
1B
  0
MATERIAL
  5
1F
102
{ACAD_REACTORS
330
E
102
}
330
E
100
AcDbMaterial
  1
ByBlock
  2

 70
0
 40
1.0
 71
1
 41
1.0
 91
-1023410177
 42
1.0
 72
1
  3

 73
1
 74
1
 75
1
 44
0.5
 73
0
 45
1.0
 46
1.0
 77
1
  4

 78
1
 79
1
170
1
 48
1.0
171
1
  6

172
1
173
1
174
1
140
1.0
141
1.0
175
1
  7

176
1
177
1
178
1
143
1.0
179
1
  8

270
1
271
1
272
1
145
1.0
146
1.0
273
1
  9

274
1
275
1
276
1
 42
1.0
 72
1
  3

 73
1
 74
1
 75
1
 94
63
  0
MATERIAL
  5
20
102
{ACAD_REACTORS
330
E
102
}
330
E
100
AcDbMaterial
  1
ByLayer
  2

 70
0
 40
1.0
 71
1
 41
1.0
 91
-1023410177
 42
1.0
 72
1
  3

 73
1
 74
1
 75
1
 44
0.5
 73
0
 45
1.0
 46
1.0
 77
1
  4

 78
1
 79
1
170
1
 48
1.0
171
1
  6

172
1
173
1
174
1
140
1.0
141
1.0
175
1
  7

176
1
177
1
178
1
143
1.0
179
1
  8

270
1
271
1
272
1
145
1.0
146
1.0
273
1
  9

274
1
275
1
276
1
 42
1.0
 72
1
  3

 73
1
 74
1
 75
1
 94
63
  0
MATERIAL
  5
21
102
{ACAD_REACTORS
330
E
102
}
330
E
100
AcDbMaterial
  1
Global
  2

 70
0
 40
1.0
 71
1
 41
1.0
 91
-1023410177
 42
1.0
 72
1
  3

 73
1
 74
1
 75
1
 44
0.5
 73
0
 45
1.0
 46
1.0
 77
1
  4

 78
1
 79
1
170
1
 48
1.0
171
1
  6

172
1
173
1
174
1
140
1.0
141
1.0
175
1
  7

176
1
177
1
178
1
143
1.0
179
1
  8

270
1
271
1
272
1
145
1.0
146
1.0
273
1
  9

274
1
275
1
276
1
 42
1.0
 72
1
  3

 73
1
 74
1
 75
1
 94
63
  0
MLINESTYLE
  5
22
102
{ACAD_REACTORS
330
10
102
}
330
10
100
AcDbMlineStyle
  2
Standard
 70
0
  3

 62
256
 51
90.0
 52
90.0
 71
2
 49
0.5
 62
256
  6
BYLAYER
 49
-0.5
 62
256
  6
BYLAYER
  0
MLEADERSTYLE
  5
2C
102
{ACAD_REACTORS
330
F
102
}
330
F
100
AcDbMLeaderStyle
179
2
170
2
171
1
172
0
 90
2
 40
0.0
 41
0.0
173
1
 91
-1056964608
 92
-2
290
1
 42
2.0
291
1
 43
8.0
  3
Standard
 44
4.0
300

342
29
174
1
175
1
176
0
178
1
 93
-1056964608
 45
4.0
292
0
297
0
 46
4.0
 94
-1056964608
 47
1.0
 49
1.0
140
1.0
294
1
141
0.0
177
0
142
1.0
295
0
296
0
143
3.75
271
0
272
9
273
9
  0
DICTIONARY
  5
2D
330
A
100
AcDbDictionary
280
1
281
1
  3
CREATED_BY_EZDXF
350
2E
  3
WRITTEN_BY_EZDXF
350
10A
  0
DICTIONARYVAR
  5
2E
330
2D
100
DictionaryVariables
280
0
  1
1.4.4 @ 2026-05-16T11:55:09.931619+00:00
  0
DICTIONARYVAR
  5
10A
330
2D
100
DictionaryVariables
280
0
  1
1.4.4 @ 2026-05-16T11:55:09.939256+00:00
  0
ENDSEC
  0
EOF
