DBRep_DrawableShape

CASCADE Topology V3, (c) Open Cascade
Locations 0
Curve2ds 0
Curves 12
1 -25 -20 -15 0 0 1 
1 -25 -20 -15 0 1 0 
1 -25 20 -15 0 0 1 
1 -25 -20 15 0 1 0 
1 25 -20 -15 0 0 1 
1 25 -20 -15 0 1 0 
1 25 20 -15 0 0 1 
1 25 -20 15 0 1 0 
1 -25 -20 -15 1 0 0 
1 -25 -20 15 1 0 0 
1 -25 20 -15 1 0 0 
1 -25 20 15 1 0 0 
Polygon3D 0
PolygonOnTriangulations 24
2 1 2 
p 0.250000001 1 0 30 
2 1 3 
p 0.250000001 1 0 30 
2 1 3 
p 0.250000001 1 0 40 
2 1 2 
p 0.250000001 1 0 40 
2 3 4 
p 0.250000001 1 0 30 
2 1 3 
p 0.250000001 1 0 30 
2 2 4 
p 0.250000001 1 0 40 
2 1 2 
p 0.250000001 1 0 40 
2 1 2 
p 0.250000001 1 0 30 
2 2 4 
p 0.250000001 1 0 30 
2 1 3 
p 0.250000001 1 0 40 
2 3 4 
p 0.250000001 1 0 40 
2 3 4 
p 0.250000001 1 0 30 
2 2 4 
p 0.250000001 1 0 30 
2 2 4 
p 0.250000001 1 0 40 
2 3 4 
p 0.250000001 1 0 40 
2 1 2 
p 0.250000001 1 0 50 
2 1 3 
p 0.250000001 1 0 50 
2 3 4 
p 0.250000001 1 0 50 
2 1 3 
p 0.250000001 1 0 50 
2 1 2 
p 0.250000001 1 0 50 
2 2 4 
p 0.250000001 1 0 50 
2 3 4 
p 0.250000001 1 0 50 
2 2 4 
p 0.250000001 1 0 50 
Surfaces 6
1 -25 -20 -15 1 0 0 0 0 1 0 -1 0 
1 -25 -20 -15 0 1 0 0 -0 1 1 0 -0 
1 -25 -20 -15 0 0 1 1 0 -0 -0 1 0 
1 -25 20 -15 0 1 0 0 -0 1 1 0 -0 
1 -25 -20 15 0 0 1 1 0 -0 -0 1 0 
1 25 -20 -15 1 0 0 0 0 1 0 -1 0 
Triangulations 6
4 2 1 0 8.88178419700125e-16
-25 -20 -15 -25 -20 15 -25 20 -15 -25 20 15 0 0 30 0 0 -40 30 -40 2 1 3 2 3 4 
4 2 1 0 1.77635683940025e-15
-25 -20 -15 25 -20 -15 -25 -20 15 25 -20 15 0 0 0 50 30 0 30 50 4 2 1 4 1 3 
4 2 1 0 1.98602732259782e-15
-25 -20 -15 -25 20 -15 25 -20 -15 25 20 -15 0 0 0 40 50 0 50 40 4 2 1 4 1 3 
4 2 1 0 1.77635683940025e-15
-25 20 -15 25 20 -15 -25 20 15 25 20 15 0 0 0 50 30 0 30 50 4 2 1 4 1 3 
4 2 1 0 1.98602732259782e-15
-25 -20 15 -25 20 15 25 -20 15 25 20 15 0 0 0 40 50 0 50 40 4 2 1 4 1 3 
4 2 1 0 8.88178419700125e-16
25 -20 -15 25 -20 15 25 20 -15 25 20 15 0 0 30 0 0 -40 30 -40 2 1 3 2 3 4 

TShapes 35
Ve
1e-07
-25 -20 -15
0 0

0101101
*
Ve
1e-07
-25 -20 15
0 0

0101101
*
Ed
 1e-07 1 1 0
1  1 0 0 30
4 C0 1 0 2 0
6  1 1 0
6  2 2 0
0

0101000
+35 0 -34 0 *
Ve
1e-07
-25 20 -15
0 0

0101101
*
Ed
 1e-07 1 1 0
1  2 0 0 40
4 C0 1 0 3 0
6  3 1 0
6  4 3 0
0

0101000
+35 0 -32 0 *
Ve
1e-07
-25 20 15
0 0

0101101
*
Ed
 1e-07 1 1 0
1  3 0 0 30
4 C0 1 0 4 0
6  5 1 0
6  6 4 0
0

0101000
+32 0 -30 0 *
Ed
 1e-07 1 1 0
1  4 0 0 40
4 C0 1 0 5 0
6  7 1 0
6  8 5 0
0

0101000
+34 0 -30 0 *
Wi

0101100
-33 0 +31 0 +29 0 -28 0 *
Fa
0  1e-07 1 0
2  1
0101000
+27 0 *
Ve
1e-07
25 -20 -15
0 0

0101101
*
Ve
1e-07
25 -20 15
0 0

0101101
*
Ed
 1e-07 1 1 0
1  5 0 0 30
4 C0 6 0 2 0
6  9 6 0
6  10 2 0
0

0101000
+25 0 -24 0 *
Ve
1e-07
25 20 -15
0 0

0101101
*
Ed
 1e-07 1 1 0
1  6 0 0 40
4 C0 6 0 3 0
6  11 6 0
6  12 3 0
0

0101000
+25 0 -22 0 *
Ve
1e-07
25 20 15
0 0

0101101
*
Ed
 1e-07 1 1 0
1  7 0 0 30
4 C0 6 0 4 0
6  13 6 0
6  14 4 0
0

0101000
+22 0 -20 0 *
Ed
 1e-07 1 1 0
1  8 0 0 40
4 C0 6 0 5 0
6  15 6 0
6  16 5 0
0

0101000
+24 0 -20 0 *
Wi

0101100
-23 0 +21 0 +19 0 -18 0 *
Fa
0  1e-07 6 0
2  6
0101000
+17 0 *
Ed
 1e-07 1 1 0
1  9 0 0 50
4 C0 2 0 3 0
6  17 2 0
6  18 3 0
0

0101000
+35 0 -25 0 *
Ed
 1e-07 1 1 0
1  10 0 0 50
4 C0 2 0 5 0
6  19 2 0
6  20 5 0
0

0101000
+34 0 -24 0 *
Wi

0101100
-15 0 +33 0 +14 0 -23 0 *
Fa
0  1e-07 2 0
2  2
0101000
+13 0 *
Ed
 1e-07 1 1 0
1  11 0 0 50
4 C0 4 0 3 0
6  21 4 0
6  22 3 0
0

0101000
+32 0 -22 0 *
Ed
 1e-07 1 1 0
1  12 0 0 50
4 C0 4 0 5 0
6  23 4 0
6  24 5 0
0

0101000
+30 0 -20 0 *
Wi

0101100
-11 0 +29 0 +10 0 -19 0 *
Fa
0  1e-07 4 0
2  4
0101000
+9 0 *
Wi

0101100
-31 0 +15 0 +21 0 -11 0 *
Fa
0  1e-07 3 0
2  3
0101000
+7 0 *
Wi

0101100
-28 0 +14 0 +18 0 -10 0 *
Fa
0  1e-07 5 0
2  5
0101000
+5 0 *
Sh

0101100
-26 0 +16 0 -12 0 +8 0 -6 0 +4 0 *
So

0100000
+3 0 *
Co

1100000
+2 0 *

+1 0 